<?xml version="1.0" encoding="utf-8"?>
<svg xmlns="http://www.w3.org/2000/svg" version="1.1" viewBox="-5.0 -10.0 110.0 135.0" xmlns:bx="https://boxy-svg.com" width="110px" height="135px"><defs><bx:export><bx:file format="svg" path="repeat.svg"/></bx:export></defs><path d="m8.1016 50.637c4.0195-32.605 29.047-36.082 32.516-36.402v-8.3398c-0.003907-1.8711 1.5078-3.3906 3.3789-3.3945 0.76172 0 1.5 0.25391 2.0977 0.72266l23.191 18.086c1.4766 1.1484 1.7422 3.2773 0.59375 4.75-0.17188 0.22266-0.37109 0.42188-0.59375 0.59375l-23.195 18.086c-1.4727 1.1523-3.6016 0.89844-4.7539-0.57422-0.46875-0.59766-0.72266-1.3359-0.72266-2.0977v-8.25c-12.168 0.26953-20.176 10.559-24.777 19.223-0.70313 1.3555-2.1016 2.207-3.6289 2.2109-0.43359 0-0.86328-0.070312-1.2773-0.19922-1.9023-0.57031-3.1055-2.4453-2.8281-4.4141zm83.797-1.2227c0.27344-1.9727-0.94141-3.8516-2.8555-4.4102-0.41406-0.13281-0.84375-0.19922-1.2773-0.19922-1.5195 0.007812-2.9102 0.85937-3.6055 2.2109-4.582 8.6602-12.59 18.949-24.77 19.223v-8.3008c0.003906-1.8711-1.5078-3.3906-3.3789-3.3945-0.76172 0-1.5 0.25391-2.0977 0.72266l-23.184 18.082c-1.4766 1.1484-1.7422 3.2773-0.59375 4.75 0.17188 0.22266 0.37109 0.42188 0.59375 0.59375l23.188 18.086c1.4727 1.1523 3.6016 0.89844 4.7539-0.57422 0.46875-0.59766 0.72266-1.3359 0.72266-2.0977v-8.3398c3.457-0.27344 28.496-3.7383 32.504-36.352z"/></svg>