<?xml version="1.0" encoding="utf-8"?>
<svg xmlns="http://www.w3.org/2000/svg" version="1.1" viewBox="-5.0 -10.0 110.0 135.0" xmlns:bx="https://boxy-svg.com" width="110px" height="135px"><defs><bx:export><bx:file format="svg" path="web.svg"/></bx:export></defs><path d="m97.355 68.609-2.8516-1.1836c-0.074218-0.0625-0.16016-0.11719-0.25781-0.16016-5.1484-2.1328-8.4727-8.9102-8.4727-17.266 0-7.9375 3.0039-14.445 7.7148-16.902l3.9023-1.6133c0.5-0.20703 0.73828-0.77734 0.53125-1.2812-0.20703-0.5-0.77734-0.73828-1.2812-0.53125l-2.9141 1.2031c-0.078124 0.011719-0.15625 0.015625-0.23437 0.046875-5.1445 2.1328-12.289-0.30859-18.199-6.2188-5.6133-5.6133-8.0898-12.336-6.5-17.406l1.6211-3.9023c0.20703-0.5-0.027343-1.0742-0.52734-1.2812s-1.0742 0.027344-1.2812 0.52734l-1.207 2.9102c-0.046876 0.0625-0.10156 0.125-0.13672 0.20312-2.1328 5.1484-8.9102 8.4727-17.266 8.4727-7.9375 0-14.445-3.0039-16.902-7.7148l-1.6133-3.9023c-0.20703-0.5-0.77734-0.73828-1.2812-0.53125-0.5 0.20703-0.73828 0.77734-0.53125 1.2812l1.2031 2.9102c0.011718 0.082031 0.015625 0.16016 0.046875 0.23828 2.1328 5.1484-0.30859 12.289-6.2188 18.199-5.6133 5.6133-12.336 8.0898-17.406 6.4961l-3.9023-1.6211c-0.5-0.20703-1.0742 0.027344-1.2812 0.52734s0.027344 1.0742 0.52734 1.2812l2.8516 1.1836c0.074219 0.0625 0.16016 0.11719 0.25781 0.16016 5.1484 2.1328 8.4727 8.9102 8.4727 17.266 0 7.9375-3.0039 14.445-7.7148 16.902l-3.9023 1.6133c-0.5 0.20703-0.73828 0.77734-0.53125 1.2812 0.15625 0.37891 0.51953 0.60547 0.90625 0.60547 0.125 0 0.25-0.023438 0.375-0.074219l2.918-1.2031c0.078125-0.011719 0.15625-0.015625 0.23438-0.046875 5.1445-2.1328 12.289 0.30859 18.199 6.2188 5.6133 5.6133 8.0898 12.336 6.5 17.406l-1.6211 3.9023c-0.20703 0.5 0.027344 1.0742 0.52734 1.2812 0.12109 0.050781 0.25 0.074219 0.375 0.074219 0.38281 0 0.75-0.22656 0.90625-0.60547l1.207-2.9102c0.046875-0.0625 0.10156-0.12109 0.13281-0.19922 2.1328-5.1484 8.9102-8.4727 17.266-8.4727 7.9375 0 14.445 3.0039 16.902 7.7148l1.6133 3.9023c0.15625 0.37891 0.51953 0.60547 0.90625 0.60547 0.125 0 0.25-0.023438 0.375-0.074219 0.5-0.20703 0.73828-0.77734 0.53125-1.2812l-1.2031-2.9102c-0.011719-0.082031-0.015625-0.16016-0.046875-0.23828-2.1328-5.1484 0.30859-12.289 6.2188-18.199 5.6133-5.6133 12.336-8.0898 17.406-6.4961l3.9023 1.6211c0.12109 0.050781 0.25 0.074219 0.375 0.074219 0.38281 0 0.75-0.22656 0.90625-0.60547 0.20703-0.5-0.027343-1.0742-0.52734-1.2812zm-13.539-18.609c0 5.9414 1.6094 11.176 4.3398 14.789l-10.012-4.1602c-0.054687-0.039062-0.10938-0.078125-0.17188-0.10156-3.1016-1.2852-5.1055-5.418-5.1055-10.527 0-4.8477 1.8047-8.8086 4.6367-10.301l10.57-4.3672c-2.6797 3.6094-4.2578 8.7852-4.2578 14.664zm-28.879-9.332c0.42188 0.89062 1.0234 1.7695 1.8242 2.5703 0.80859 0.80859 1.6953 1.4141 2.5977 1.8359l-7.543 3.1172 3.125-7.5234zm-4.9336 6.7734-3.1094-7.5312c0.92578 0.33203 1.9727 0.53125 3.1055 0.53125 1.1445 0 2.1992-0.19922 3.1328-0.53906l-3.1328 7.5391zm-1.8125 0.74609-7.5234-3.125c0.89062-0.42188 1.7695-1.0195 2.5742-1.8242 0.80859-0.80859 1.4141-1.6953 1.8359-2.5977l3.1172 7.543zm-0.75 1.8086-7.5312 3.1094c0.33203-0.92578 0.53125-1.9727 0.53125-3.1055 0-1.1445-0.19922-2.1992-0.53906-3.1328l7.5391 3.1328zm0.74609 1.8125-3.125 7.5234c-0.42188-0.89062-1.0234-1.7695-1.8242-2.5703-0.80859-0.80859-1.6953-1.4141-2.5977-1.8359l7.543-3.1172zm1.8086 0.75 3.1094 7.5312c-0.92578-0.33203-1.9727-0.53125-3.1055-0.53125-1.1445 0-2.1992 0.19922-3.1328 0.53906l3.1328-7.5391zm1.8125-0.74609 7.5234 3.125c-0.89062 0.42188-1.7695 1.0195-2.5742 1.8242-0.80859 0.80859-1.4141 1.6953-1.8359 2.5977l-3.1172-7.543zm0.75-1.8086 7.5312-3.1094c-0.33203 0.92578-0.53125 1.9727-0.53125 3.1055 0 1.1445 0.19922 2.1992 0.53906 3.1328l-7.5391-3.1328zm10.426-6.4258c-0.023437 0.007813-0.046875 0.003906-0.070313 0.015625-1.4805 0.61328-3.4648-0.42969-4.7695-1.7344-1.2773-1.2773-2.293-3.1953-1.7656-4.6641l3.918-9.4297c0.64844 2.5273 2.1758 5.1406 4.4883 7.4531 2.3359 2.3359 4.9805 3.8711 7.5312 4.5078l-9.332 3.8555zm-8.3438-7.3008c-0.011719 0.023437-0.03125 0.035156-0.039063 0.058594-0.61328 1.4805-2.7539 2.1445-4.5977 2.1445-1.8047 0-3.875-0.63672-4.543-2.0469l-3.8984-9.4375c2.2461 1.3281 5.1758 2.0977 8.4414 2.0977 3.3008 0 6.2578-0.78516 8.5117-2.1406zm-11.066 0.73438c0.007812 0.023437 0.003906 0.050781 0.015625 0.074219 0.61328 1.4805-0.42969 3.4609-1.7344 4.7695-1.2773 1.2773-3.1953 2.293-4.6641 1.7656l-9.4297-3.918c2.5273-0.64844 5.1406-2.1758 7.4531-4.4883 2.3359-2.3359 3.8711-4.9805 4.5078-7.5312l3.8555 9.332zm-7.3203 8.3398c0.027344 0.015626 0.050782 0.035157 0.082032 0.050782 1.4805 0.61328 2.1445 2.7539 2.1445 4.5977 0 1.8047-0.63672 3.875-2.0469 4.543l-9.4375 3.8984c1.3281-2.2461 2.0977-5.1758 2.0977-8.4414 0-3.3008-0.78516-6.2578-2.1406-8.5117l9.3047 3.8633zm0.76172 11.07c0.023437-0.007813 0.046875-0.003906 0.070313-0.015625 1.4805-0.61719 3.4609 0.42969 4.7695 1.7344 1.2773 1.2773 2.293 3.1953 1.7656 4.6641l-3.918 9.4297c-0.64844-2.5273-2.1758-5.1406-4.4883-7.4531-2.3359-2.3359-4.9805-3.8711-7.5312-4.5078l9.332-3.8555zm8.3438 7.3008c0.011719-0.023437 0.03125-0.035156 0.039063-0.058594 0.61328-1.4805 2.7539-2.1445 4.5977-2.1445 1.8047 0 3.875 0.63672 4.543 2.0469l3.8984 9.4375c-2.2461-1.3281-5.1758-2.0977-8.4414-2.0977-3.3008 0-6.2578 0.78516-8.5117 2.1406zm11.066-0.73438c-0.007812-0.023437-0.003906-0.050781-0.015625-0.074219-0.61328-1.4805 0.42969-3.4609 1.7344-4.7695 1.2773-1.2773 3.1953-2.293 4.6641-1.7656l9.4297 3.918c-2.5273 0.64844-5.1406 2.1758-7.4531 4.4883-2.3359 2.3359-3.8711 4.9805-4.5078 7.5312l-3.8555-9.332zm7.3203-8.3398c-0.027344-0.015626-0.050782-0.035157-0.082032-0.050782-1.4805-0.61328-2.1445-2.7539-2.1445-4.5977 0-1.8047 0.63672-3.875 2.0469-4.543l9.4375-3.8984c-1.3281 2.2461-2.0977 5.1758-2.0977 8.4414 0 3.3008 0.78516 6.2578 2.1406 8.5117l-9.3047-3.8633zm10.164-28.559c4.1992 4.1992 9.0352 6.7695 13.52 7.3906l-10.059 4.1562c-0.050782 0.011719-0.097656 0.007812-0.14844 0.027343-3.1016 1.2852-7.4414-0.21875-11.055-3.832-3.4258-3.4258-4.9531-7.5039-4.0039-10.562l4.3789-10.543c0.66016 4.4414 3.2148 9.2148 7.3672 13.363zm-23.91-9.9062c5.9414 0 11.176-1.6094 14.789-4.3398l-4.1758 10.059c-0.027343 0.042968-0.0625 0.078125-0.085937 0.125-1.2852 3.1016-5.418 5.1055-10.527 5.1055-4.8477 0-8.8086-1.8047-10.301-4.6367l-4.3672-10.57c3.6094 2.6797 8.7852 4.2578 14.664 4.2578zm-23.91 9.9062c4.1992-4.1992 6.7656-9.0352 7.3906-13.52l4.1523 10.055c0.011719 0.050781 0.011719 0.10156 0.03125 0.15234 1.2852 3.1016-0.21875 7.4414-3.832 11.055-3.4258 3.4258-7.5 4.9531-10.559 4.0078l-10.547-4.3828c4.4414-0.66016 9.2148-3.2148 13.363-7.3672zm-9.9062 23.91c0-5.9414-1.6094-11.176-4.3398-14.789l10.012 4.1602c0.054687 0.039062 0.10938 0.078125 0.17188 0.10156 3.1016 1.2852 5.1055 5.418 5.1055 10.527 0 4.8477-1.8047 8.8086-4.6367 10.301l-10.57 4.3672c2.6797-3.6094 4.2578-8.7852 4.2578-14.664zm9.9062 23.91c-4.1992-4.1992-9.0352-6.7695-13.52-7.3906l10.059-4.1562c0.050782-0.011719 0.097656-0.007812 0.14844-0.027343 3.1016-1.2852 7.4414 0.21875 11.055 3.832 3.4258 3.4258 4.9531 7.5039 4.0039 10.562l-4.3789 10.543c-0.66016-4.4414-3.2148-9.2148-7.3672-13.363zm23.91 9.9062c-5.9414 0-11.176 1.6094-14.789 4.3398l4.1758-10.059c0.027343-0.042968 0.0625-0.078125 0.085937-0.125 1.2852-3.1016 5.418-5.1055 10.527-5.1055 4.8477 0 8.8086 1.8047 10.301 4.6367l4.3672 10.57c-3.6094-2.6797-8.7852-4.2578-14.664-4.2578zm23.91-9.9062c-4.1992 4.1992-6.7656 9.0352-7.3906 13.52l-4.1523-10.055c-0.011719-0.050781-0.011719-0.10156-0.03125-0.15234-1.2852-3.1016 0.21875-7.4414 3.832-11.055 3.4297-3.4258 7.5078-4.9531 10.562-4.0039l10.543 4.3789c-4.4414 0.66016-9.2148 3.2148-13.363 7.3672z"/></svg>